<svg xmlns="http://www.w3.org/2000/svg" width="1200" height="630" viewBox="0 0 1200 630"><rect width="1200" height="630" fill="#07110d"/><g opacity=".12" stroke="#88ffb5"><path d="M0 90h1200M0 180h1200M0 270h1200M0 360h1200M0 450h1200M0 540h1200M100 0v630M200 0v630M300 0v630M400 0v630M500 0v630M600 0v630M700 0v630M800 0v630M900 0v630M1000 0v630M1100 0v630"/></g><rect x="80" y="80" width="58" height="58" fill="none" stroke="#88ffb5" stroke-width="3"/><text x="109" y="117" text-anchor="middle" font-family="monospace" font-weight="700" font-size="22" fill="#88ffb5">JK</text><text x="80" y="300" font-family="Arial,sans-serif" font-weight="700" font-size="76" fill="#f4f7f3">Jaya Krishna Polaki</text><text x="80" y="375" font-family="monospace" font-size="28" fill="#88ffb5">JAVA BACKEND DEVELOPER</text><text x="80" y="440" font-family="Arial,sans-serif" font-size="26" fill="#98a99f">Production-ready systems · Java 21 · Spring Boot · AWS</text></svg>
